<mxfile host="app.diagrams.net" modified="2023-07-25T11:02:18.165Z" agent="Mozilla/5.0 (Windows NT 10.0; Win64; x64) AppleWebKit/537.36 (KHTML, like Gecko) Chrome/115.0.0.0 Safari/537.36" etag="UT_Qd83ydapr16dp4qsz" version="21.6.5" type="google">
  <diagram name="Page-1" id="1_u2pNZljd538CYOJaob">
    <mxGraphModel grid="0" page="1" gridSize="10" guides="1" tooltips="1" connect="1" arrows="1" fold="1" pageScale="1" pageWidth="850" pageHeight="1100" math="0" shadow="0">
      <root>
        <mxCell id="0" />
        <mxCell id="1" parent="0" />
        <mxCell id="_94-Zmwqr-JasHV7PoeX-1" value="" style="ellipse;html=1;shape=startState;fillColor=#000000;strokeColor=#ff0000;" vertex="1" parent="1">
          <mxGeometry x="70" y="130" width="30" height="30" as="geometry" />
        </mxCell>
        <mxCell id="_94-Zmwqr-JasHV7PoeX-2" value="" style="edgeStyle=orthogonalEdgeStyle;html=1;verticalAlign=bottom;endArrow=open;endSize=8;strokeColor=#ff0000;rounded=0;" edge="1" parent="1" source="_94-Zmwqr-JasHV7PoeX-1">
          <mxGeometry relative="1" as="geometry">
            <mxPoint x="150" y="145" as="targetPoint" />
          </mxGeometry>
        </mxCell>
        <mxCell id="_94-Zmwqr-JasHV7PoeX-3" value="Create Account" style="rounded=1;whiteSpace=wrap;html=1;" vertex="1" parent="1">
          <mxGeometry x="150" y="120" width="120" height="60" as="geometry" />
        </mxCell>
        <mxCell id="_94-Zmwqr-JasHV7PoeX-4" value="" style="endArrow=classic;html=1;rounded=0;exitX=1;exitY=0.5;exitDx=0;exitDy=0;" edge="1" parent="1" source="_94-Zmwqr-JasHV7PoeX-3">
          <mxGeometry width="50" height="50" relative="1" as="geometry">
            <mxPoint x="370" y="350" as="sourcePoint" />
            <mxPoint x="320" y="150" as="targetPoint" />
          </mxGeometry>
        </mxCell>
        <mxCell id="_94-Zmwqr-JasHV7PoeX-5" value="Validation" style="rounded=1;whiteSpace=wrap;html=1;" vertex="1" parent="1">
          <mxGeometry x="320" y="118" width="120" height="60" as="geometry" />
        </mxCell>
        <mxCell id="_94-Zmwqr-JasHV7PoeX-7" value="" style="endArrow=classic;html=1;rounded=0;exitX=1;exitY=0.5;exitDx=0;exitDy=0;" edge="1" parent="1" target="_94-Zmwqr-JasHV7PoeX-8">
          <mxGeometry width="50" height="50" relative="1" as="geometry">
            <mxPoint x="440" y="150" as="sourcePoint" />
            <mxPoint x="490" y="150" as="targetPoint" />
          </mxGeometry>
        </mxCell>
        <mxCell id="_94-Zmwqr-JasHV7PoeX-8" value="Is valid ?" style="rhombus;whiteSpace=wrap;html=1;" vertex="1" parent="1">
          <mxGeometry x="470" y="110.00000000000011" width="80" height="80" as="geometry" />
        </mxCell>
        <mxCell id="_94-Zmwqr-JasHV7PoeX-9" value="" style="endArrow=classic;html=1;rounded=0;exitX=0.5;exitY=1;exitDx=0;exitDy=0;" edge="1" parent="1" source="_94-Zmwqr-JasHV7PoeX-8">
          <mxGeometry width="50" height="50" relative="1" as="geometry">
            <mxPoint x="500" y="190" as="sourcePoint" />
            <mxPoint x="510" y="220" as="targetPoint" />
          </mxGeometry>
        </mxCell>
        <mxCell id="_94-Zmwqr-JasHV7PoeX-10" value="" style="endArrow=classic;html=1;rounded=0;exitX=1;exitY=0.5;exitDx=0;exitDy=0;" edge="1" parent="1">
          <mxGeometry width="50" height="50" relative="1" as="geometry">
            <mxPoint x="550" y="150" as="sourcePoint" />
            <mxPoint x="600" y="150" as="targetPoint" />
          </mxGeometry>
        </mxCell>
        <mxCell id="_94-Zmwqr-JasHV7PoeX-11" value="Confirm message to user" style="rounded=1;whiteSpace=wrap;html=1;" vertex="1" parent="1">
          <mxGeometry x="600" y="218" width="120" height="60" as="geometry" />
        </mxCell>
        <mxCell id="_94-Zmwqr-JasHV7PoeX-13" value="Reject the details" style="rounded=1;whiteSpace=wrap;html=1;" vertex="1" parent="1">
          <mxGeometry x="450" y="218" width="120" height="60" as="geometry" />
        </mxCell>
        <mxCell id="_94-Zmwqr-JasHV7PoeX-14" value="create data in database" style="rounded=1;whiteSpace=wrap;html=1;" vertex="1" parent="1">
          <mxGeometry x="590" y="130" width="120" height="60" as="geometry" />
        </mxCell>
        <mxCell id="_94-Zmwqr-JasHV7PoeX-15" value="" style="endArrow=classic;html=1;rounded=0;exitX=0.5;exitY=1;exitDx=0;exitDy=0;" edge="1" parent="1">
          <mxGeometry width="50" height="50" relative="1" as="geometry">
            <mxPoint x="660" y="190" as="sourcePoint" />
            <mxPoint x="660" y="220" as="targetPoint" />
          </mxGeometry>
        </mxCell>
        <mxCell id="_94-Zmwqr-JasHV7PoeX-17" value="" style="ellipse;html=1;shape=endState;fillColor=#000000;strokeColor=#ff0000;" vertex="1" parent="1">
          <mxGeometry x="647" y="312" width="30" height="30" as="geometry" />
        </mxCell>
        <mxCell id="_94-Zmwqr-JasHV7PoeX-20" value="" style="endArrow=classic;html=1;rounded=0;exitX=0.5;exitY=1;exitDx=0;exitDy=0;" edge="1" parent="1">
          <mxGeometry width="50" height="50" relative="1" as="geometry">
            <mxPoint x="660" y="280" as="sourcePoint" />
            <mxPoint x="660" y="310" as="targetPoint" />
          </mxGeometry>
        </mxCell>
        <mxCell id="_94-Zmwqr-JasHV7PoeX-21" value="Idle" style="text;align=center;fontStyle=1;verticalAlign=middle;spacingLeft=3;spacingRight=3;strokeColor=none;rotatable=0;points=[[0,0.5],[1,0.5]];portConstraint=eastwest;html=1;" vertex="1" parent="1">
          <mxGeometry x="80" y="118" width="80" height="26" as="geometry" />
        </mxCell>
        <mxCell id="_94-Zmwqr-JasHV7PoeX-22" value="Validate details" style="text;align=center;fontStyle=1;verticalAlign=middle;spacingLeft=3;spacingRight=3;strokeColor=none;rotatable=0;points=[[0,0.5],[1,0.5]];portConstraint=eastwest;html=1;" vertex="1" parent="1">
          <mxGeometry x="410" y="92" width="80" height="26" as="geometry" />
        </mxCell>
        <mxCell id="_94-Zmwqr-JasHV7PoeX-23" value="Send details" style="text;align=center;fontStyle=1;verticalAlign=middle;spacingLeft=3;spacingRight=3;strokeColor=none;rotatable=0;points=[[0,0.5],[1,0.5]];portConstraint=eastwest;html=1;" vertex="1" parent="1">
          <mxGeometry x="260" y="94" width="80" height="26" as="geometry" />
        </mxCell>
        <mxCell id="_94-Zmwqr-JasHV7PoeX-24" value="Validation success" style="text;align=center;fontStyle=1;verticalAlign=middle;spacingLeft=3;spacingRight=3;strokeColor=none;rotatable=0;points=[[0,0.5],[1,0.5]];portConstraint=eastwest;html=1;" vertex="1" parent="1">
          <mxGeometry x="541" y="102" width="80" height="26" as="geometry" />
        </mxCell>
        <mxCell id="_94-Zmwqr-JasHV7PoeX-25" value="validation failure" style="text;align=center;fontStyle=1;verticalAlign=middle;spacingLeft=3;spacingRight=3;strokeColor=none;rotatable=0;points=[[0,0.5],[1,0.5]];portConstraint=eastwest;html=1;" vertex="1" parent="1">
          <mxGeometry x="421" y="188" width="80" height="26" as="geometry" />
        </mxCell>
        <mxCell id="_94-Zmwqr-JasHV7PoeX-26" value="Account created" style="text;align=center;fontStyle=1;verticalAlign=middle;spacingLeft=3;spacingRight=3;strokeColor=none;rotatable=0;points=[[0,0.5],[1,0.5]];portConstraint=eastwest;html=1;" vertex="1" parent="1">
          <mxGeometry x="670" y="188" width="80" height="26" as="geometry" />
        </mxCell>
        <mxCell id="_94-Zmwqr-JasHV7PoeX-27" value="" style="endArrow=classic;html=1;rounded=0;exitX=1;exitY=0.5;exitDx=0;exitDy=0;" edge="1" parent="1">
          <mxGeometry width="50" height="50" relative="1" as="geometry">
            <mxPoint x="570" y="240" as="sourcePoint" />
            <mxPoint x="600" y="240" as="targetPoint" />
          </mxGeometry>
        </mxCell>
        <mxCell id="_94-Zmwqr-JasHV7PoeX-28" value="Start" style="text;align=center;fontStyle=1;verticalAlign=middle;spacingLeft=3;spacingRight=3;strokeColor=none;rotatable=0;points=[[0,0.5],[1,0.5]];portConstraint=eastwest;html=1;" vertex="1" parent="1">
          <mxGeometry x="40" y="98" width="80" height="26" as="geometry" />
        </mxCell>
        <mxCell id="_94-Zmwqr-JasHV7PoeX-29" value="End" style="text;align=center;fontStyle=1;verticalAlign=middle;spacingLeft=3;spacingRight=3;strokeColor=none;rotatable=0;points=[[0,0.5],[1,0.5]];portConstraint=eastwest;html=1;" vertex="1" parent="1">
          <mxGeometry x="630" y="348" width="80" height="26" as="geometry" />
        </mxCell>
        <mxCell id="_94-Zmwqr-JasHV7PoeX-30" value="Create Account" style="text;align=center;fontStyle=1;verticalAlign=middle;spacingLeft=3;spacingRight=3;strokeColor=none;rotatable=0;points=[[0,0.5],[1,0.5]];portConstraint=eastwest;html=1;" vertex="1" parent="1">
          <mxGeometry x="45" y="40" width="165" height="26" as="geometry" />
        </mxCell>
        <mxCell id="_94-Zmwqr-JasHV7PoeX-31" value="" style="ellipse;html=1;shape=startState;fillColor=#000000;strokeColor=#ff0000;" vertex="1" parent="1">
          <mxGeometry x="100" y="530" width="30" height="30" as="geometry" />
        </mxCell>
        <mxCell id="_94-Zmwqr-JasHV7PoeX-32" value="" style="edgeStyle=orthogonalEdgeStyle;html=1;verticalAlign=bottom;endArrow=open;endSize=8;strokeColor=#ff0000;rounded=0;" edge="1" parent="1" source="_94-Zmwqr-JasHV7PoeX-31">
          <mxGeometry relative="1" as="geometry">
            <mxPoint x="180" y="545" as="targetPoint" />
          </mxGeometry>
        </mxCell>
        <mxCell id="_94-Zmwqr-JasHV7PoeX-33" value="check balance" style="rounded=1;whiteSpace=wrap;html=1;" vertex="1" parent="1">
          <mxGeometry x="180" y="520" width="120" height="60" as="geometry" />
        </mxCell>
        <mxCell id="_94-Zmwqr-JasHV7PoeX-34" value="" style="endArrow=classic;html=1;rounded=0;exitX=1;exitY=0.5;exitDx=0;exitDy=0;" edge="1" parent="1" source="_94-Zmwqr-JasHV7PoeX-33">
          <mxGeometry width="50" height="50" relative="1" as="geometry">
            <mxPoint x="400" y="750" as="sourcePoint" />
            <mxPoint x="350" y="550" as="targetPoint" />
          </mxGeometry>
        </mxCell>
        <mxCell id="_94-Zmwqr-JasHV7PoeX-35" value="Bank system" style="rounded=1;whiteSpace=wrap;html=1;" vertex="1" parent="1">
          <mxGeometry x="350" y="518" width="120" height="60" as="geometry" />
        </mxCell>
        <mxCell id="_94-Zmwqr-JasHV7PoeX-36" value="" style="endArrow=classic;html=1;rounded=0;exitX=1;exitY=0.5;exitDx=0;exitDy=0;" edge="1" parent="1">
          <mxGeometry width="50" height="50" relative="1" as="geometry">
            <mxPoint x="470" y="550" as="sourcePoint" />
            <mxPoint x="500" y="550" as="targetPoint" />
          </mxGeometry>
        </mxCell>
        <mxCell id="_94-Zmwqr-JasHV7PoeX-40" value="confirm user balance" style="rounded=1;whiteSpace=wrap;html=1;" vertex="1" parent="1">
          <mxGeometry x="651" y="528" width="120" height="60" as="geometry" />
        </mxCell>
        <mxCell id="_94-Zmwqr-JasHV7PoeX-42" value="Database" style="rounded=1;whiteSpace=wrap;html=1;" vertex="1" parent="1">
          <mxGeometry x="501" y="524" width="120" height="60" as="geometry" />
        </mxCell>
        <mxCell id="_94-Zmwqr-JasHV7PoeX-44" value="" style="ellipse;html=1;shape=endState;fillColor=#000000;strokeColor=#ff0000;" vertex="1" parent="1">
          <mxGeometry x="800" y="544" width="30" height="30" as="geometry" />
        </mxCell>
        <mxCell id="_94-Zmwqr-JasHV7PoeX-45" value="" style="endArrow=classic;html=1;rounded=0;exitX=1;exitY=0.5;exitDx=0;exitDy=0;" edge="1" parent="1" source="_94-Zmwqr-JasHV7PoeX-40">
          <mxGeometry width="50" height="50" relative="1" as="geometry">
            <mxPoint x="790" y="554" as="sourcePoint" />
            <mxPoint x="800" y="560" as="targetPoint" />
          </mxGeometry>
        </mxCell>
        <mxCell id="_94-Zmwqr-JasHV7PoeX-46" value="Idle" style="text;align=center;fontStyle=1;verticalAlign=middle;spacingLeft=3;spacingRight=3;strokeColor=none;rotatable=0;points=[[0,0.5],[1,0.5]];portConstraint=eastwest;html=1;" vertex="1" parent="1">
          <mxGeometry x="110" y="518" width="80" height="26" as="geometry" />
        </mxCell>
        <mxCell id="_94-Zmwqr-JasHV7PoeX-47" value="request bank" style="text;align=center;fontStyle=1;verticalAlign=middle;spacingLeft=3;spacingRight=3;strokeColor=none;rotatable=0;points=[[0,0.5],[1,0.5]];portConstraint=eastwest;html=1;" vertex="1" parent="1">
          <mxGeometry x="440" y="492" width="80" height="26" as="geometry" />
        </mxCell>
        <mxCell id="_94-Zmwqr-JasHV7PoeX-48" value="send request to bank" style="text;align=center;fontStyle=1;verticalAlign=middle;spacingLeft=3;spacingRight=3;strokeColor=none;rotatable=0;points=[[0,0.5],[1,0.5]];portConstraint=eastwest;html=1;" vertex="1" parent="1">
          <mxGeometry x="290" y="494" width="80" height="26" as="geometry" />
        </mxCell>
        <mxCell id="_94-Zmwqr-JasHV7PoeX-49" value="balance send to user" style="text;align=center;fontStyle=1;verticalAlign=middle;spacingLeft=3;spacingRight=3;strokeColor=none;rotatable=0;points=[[0,0.5],[1,0.5]];portConstraint=eastwest;html=1;" vertex="1" parent="1">
          <mxGeometry x="610" y="498" width="80" height="26" as="geometry" />
        </mxCell>
        <mxCell id="_94-Zmwqr-JasHV7PoeX-52" value="" style="endArrow=classic;html=1;rounded=0;exitX=1;exitY=0.5;exitDx=0;exitDy=0;" edge="1" parent="1">
          <mxGeometry width="50" height="50" relative="1" as="geometry">
            <mxPoint x="620" y="557" as="sourcePoint" />
            <mxPoint x="650" y="557" as="targetPoint" />
          </mxGeometry>
        </mxCell>
        <mxCell id="_94-Zmwqr-JasHV7PoeX-53" value="Start" style="text;align=center;fontStyle=1;verticalAlign=middle;spacingLeft=3;spacingRight=3;strokeColor=none;rotatable=0;points=[[0,0.5],[1,0.5]];portConstraint=eastwest;html=1;" vertex="1" parent="1">
          <mxGeometry x="70" y="498" width="80" height="26" as="geometry" />
        </mxCell>
        <mxCell id="_94-Zmwqr-JasHV7PoeX-54" value="End" style="text;align=center;fontStyle=1;verticalAlign=middle;spacingLeft=3;spacingRight=3;strokeColor=none;rotatable=0;points=[[0,0.5],[1,0.5]];portConstraint=eastwest;html=1;" vertex="1" parent="1">
          <mxGeometry x="765" y="580" width="80" height="26" as="geometry" />
        </mxCell>
        <mxCell id="_94-Zmwqr-JasHV7PoeX-55" value="Check Balance" style="text;align=center;fontStyle=1;verticalAlign=middle;spacingLeft=3;spacingRight=3;strokeColor=none;rotatable=0;points=[[0,0.5],[1,0.5]];portConstraint=eastwest;html=1;" vertex="1" parent="1">
          <mxGeometry x="190" y="450" width="165" height="26" as="geometry" />
        </mxCell>
        <mxCell id="_94-Zmwqr-JasHV7PoeX-57" value="" style="ellipse;html=1;shape=startState;fillColor=#000000;strokeColor=#ff0000;" vertex="1" parent="1">
          <mxGeometry x="70" y="750" width="30" height="30" as="geometry" />
        </mxCell>
        <mxCell id="_94-Zmwqr-JasHV7PoeX-58" value="" style="edgeStyle=orthogonalEdgeStyle;html=1;verticalAlign=bottom;endArrow=open;endSize=8;strokeColor=#ff0000;rounded=0;" edge="1" parent="1" source="_94-Zmwqr-JasHV7PoeX-57">
          <mxGeometry relative="1" as="geometry">
            <mxPoint x="150" y="765" as="targetPoint" />
          </mxGeometry>
        </mxCell>
        <mxCell id="_94-Zmwqr-JasHV7PoeX-59" value="Deposit Money" style="rounded=1;whiteSpace=wrap;html=1;" vertex="1" parent="1">
          <mxGeometry x="150" y="740" width="120" height="60" as="geometry" />
        </mxCell>
        <mxCell id="_94-Zmwqr-JasHV7PoeX-60" value="" style="endArrow=classic;html=1;rounded=0;exitX=1;exitY=0.5;exitDx=0;exitDy=0;" edge="1" parent="1" source="_94-Zmwqr-JasHV7PoeX-59">
          <mxGeometry width="50" height="50" relative="1" as="geometry">
            <mxPoint x="370" y="970" as="sourcePoint" />
            <mxPoint x="320" y="770" as="targetPoint" />
          </mxGeometry>
        </mxCell>
        <mxCell id="_94-Zmwqr-JasHV7PoeX-61" value="Bank system" style="rounded=1;whiteSpace=wrap;html=1;" vertex="1" parent="1">
          <mxGeometry x="320" y="738" width="120" height="60" as="geometry" />
        </mxCell>
        <mxCell id="_94-Zmwqr-JasHV7PoeX-62" value="" style="endArrow=classic;html=1;rounded=0;exitX=1;exitY=0.5;exitDx=0;exitDy=0;" edge="1" parent="1">
          <mxGeometry width="50" height="50" relative="1" as="geometry">
            <mxPoint x="440" y="770" as="sourcePoint" />
            <mxPoint x="470" y="770" as="targetPoint" />
          </mxGeometry>
        </mxCell>
        <mxCell id="_94-Zmwqr-JasHV7PoeX-63" value="confirm user balance" style="rounded=1;whiteSpace=wrap;html=1;" vertex="1" parent="1">
          <mxGeometry x="621" y="748" width="120" height="60" as="geometry" />
        </mxCell>
        <mxCell id="_94-Zmwqr-JasHV7PoeX-64" value="Database" style="rounded=1;whiteSpace=wrap;html=1;" vertex="1" parent="1">
          <mxGeometry x="471" y="744" width="120" height="60" as="geometry" />
        </mxCell>
        <mxCell id="_94-Zmwqr-JasHV7PoeX-65" value="" style="ellipse;html=1;shape=endState;fillColor=#000000;strokeColor=#ff0000;" vertex="1" parent="1">
          <mxGeometry x="770" y="764" width="30" height="30" as="geometry" />
        </mxCell>
        <mxCell id="_94-Zmwqr-JasHV7PoeX-66" value="" style="endArrow=classic;html=1;rounded=0;exitX=1;exitY=0.5;exitDx=0;exitDy=0;" edge="1" parent="1" source="_94-Zmwqr-JasHV7PoeX-63">
          <mxGeometry width="50" height="50" relative="1" as="geometry">
            <mxPoint x="760" y="774" as="sourcePoint" />
            <mxPoint x="770" y="780" as="targetPoint" />
          </mxGeometry>
        </mxCell>
        <mxCell id="_94-Zmwqr-JasHV7PoeX-67" value="Idle" style="text;align=center;fontStyle=1;verticalAlign=middle;spacingLeft=3;spacingRight=3;strokeColor=none;rotatable=0;points=[[0,0.5],[1,0.5]];portConstraint=eastwest;html=1;" vertex="1" parent="1">
          <mxGeometry x="80" y="738" width="80" height="26" as="geometry" />
        </mxCell>
        <mxCell id="_94-Zmwqr-JasHV7PoeX-68" value="Store in database" style="text;align=center;fontStyle=1;verticalAlign=middle;spacingLeft=3;spacingRight=3;strokeColor=none;rotatable=0;points=[[0,0.5],[1,0.5]];portConstraint=eastwest;html=1;" vertex="1" parent="1">
          <mxGeometry x="410" y="712" width="80" height="26" as="geometry" />
        </mxCell>
        <mxCell id="_94-Zmwqr-JasHV7PoeX-69" value="Update balance" style="text;align=center;fontStyle=1;verticalAlign=middle;spacingLeft=3;spacingRight=3;strokeColor=none;rotatable=0;points=[[0,0.5],[1,0.5]];portConstraint=eastwest;html=1;" vertex="1" parent="1">
          <mxGeometry x="260" y="714" width="80" height="26" as="geometry" />
        </mxCell>
        <mxCell id="_94-Zmwqr-JasHV7PoeX-70" value="confirm message send to user" style="text;align=center;fontStyle=1;verticalAlign=middle;spacingLeft=3;spacingRight=3;strokeColor=none;rotatable=0;points=[[0,0.5],[1,0.5]];portConstraint=eastwest;html=1;" vertex="1" parent="1">
          <mxGeometry x="580" y="718" width="80" height="26" as="geometry" />
        </mxCell>
        <mxCell id="_94-Zmwqr-JasHV7PoeX-71" value="" style="endArrow=classic;html=1;rounded=0;exitX=1;exitY=0.5;exitDx=0;exitDy=0;" edge="1" parent="1">
          <mxGeometry width="50" height="50" relative="1" as="geometry">
            <mxPoint x="590" y="777" as="sourcePoint" />
            <mxPoint x="620" y="777" as="targetPoint" />
          </mxGeometry>
        </mxCell>
        <mxCell id="_94-Zmwqr-JasHV7PoeX-72" value="Start" style="text;align=center;fontStyle=1;verticalAlign=middle;spacingLeft=3;spacingRight=3;strokeColor=none;rotatable=0;points=[[0,0.5],[1,0.5]];portConstraint=eastwest;html=1;" vertex="1" parent="1">
          <mxGeometry x="40" y="718" width="80" height="26" as="geometry" />
        </mxCell>
        <mxCell id="_94-Zmwqr-JasHV7PoeX-73" value="Deposit Money" style="text;align=center;fontStyle=1;verticalAlign=middle;spacingLeft=3;spacingRight=3;strokeColor=none;rotatable=0;points=[[0,0.5],[1,0.5]];portConstraint=eastwest;html=1;" vertex="1" parent="1">
          <mxGeometry x="160" y="670" width="165" height="26" as="geometry" />
        </mxCell>
      </root>
    </mxGraphModel>
  </diagram>
</mxfile>
